# xmcd
#
# Track frame offsets:
#	150
#	10080
#	19932
#	36782
#	46866
#	58793
#	71843
#	81209
#	90724
#	102708
#	117238
#	131043
#	143743
#	154922
#	167098
#	182124
#	189092
#	199598
#	211642
#	228045
#	241661
#	250322
#	263622
#	280524
#	287540
#	297716
#	315293
#
# Disc length: 4333 seconds
#
# Revision: 0
# Processed by: cddbd v1.4PL0 Copyright (c) Steve Scherf et al.
# Submitted via: dBpowerAMP V4.0
#
DISCID=7510eb1b
DTITLE=PIESNI ZOLNIERSKIE - Seria "SPIEWNIK" z akompaniamentem
DYEAR=1900
DGENRE=Country
TTITLE0=Biale roze (sfr. 51) 
TTITLE1=Pierwsza Kadrowa (str. 81)
TTITLE2=O moj rozmarynie (str. 73) 
TTITLE3=Przybyli ulani (str. 89) 
TTITLE4=Wojenko, wojenko (str. 104)
TTITLE5=Pierwsza Brygada (str. 80)
TTITLE6=Jak to na wojence ladnie (str. 61)
TTITLE7=Deszcz jesienny, deszcz (str. 55)
TTITLE8=Serce w plecaku (str. 93)
TTITLE9=Wybaczcie piechocie (str. 107)
TTITLE10=Dzis do ciebie przyjsc nie moge (str. 56)
TTITLE11=Palacyk Michla (str. 76) 
TTITLE12=Piechota (str. 78) 
TTITLE13=Marsz Mokotowa (str. 65)
TTITLE14=Rozszumialy sie wierzby placzace (str. 91) 
TTITLE15=Morze, nasze morze (str. 68) 
TTITLE16=Marsz l Korpusu (str. 67) 
TTITLE17=Oka (str. 72) 
TTITLE18=Na straznicy (str. 70)
TTITLE19=Hej, strzelcy wraz (brak tekstu w 1 wydaniu) 
TTITLE20=Tam na bloniu (str. 99)
TTITLE21=Szturmowka (str. 97)
TTITLE22=Bosman (str. 52)
TTITLE23=Ostatni mazur (str. 75)
TTITLE24=Hej, chlopcy, bagnet na bron (str. 58)
TTITLE25=Po partyzancie (str. 83)
TTITLE26=Bywaj dziewcze zdrowe (str. 54)
EXTD=Seria "SPIEWNIK" z akompaniamentem\nPIESNI ZOLNIERSKIE\nCD - 2\nFrom Ararat
EXTT0=
EXTT1=
EXTT2=
EXTT3=
EXTT4=
EXTT5=
EXTT6=
EXTT7=
EXTT8=
EXTT9=
EXTT10=
EXTT11=
EXTT12=
EXTT13=
EXTT14=
EXTT15=
EXTT16=
EXTT17=
EXTT18=
EXTT19=
EXTT20=
EXTT21=
EXTT22=
EXTT23=
EXTT24=
EXTT25=
EXTT26=
PLAYORDER=
